<?xml version="1.0" encoding="UTF-8"?>
<svg xmlns="http://www.w3.org/2000/svg" xmlns:xlink="http://www.w3.org/1999/xlink" viewBox="0 0 439.27 468.67">
  <defs>
    <style>
      .cls-1 {
        fill: url(#linear-gradient-4);
        stroke: #231f20;
        stroke-miterlimit: 10;
        stroke-width: .25px;
      }

      .cls-2 {
        isolation: isolate;
      }

      .cls-3 {
        fill: url(#linear-gradient-2);
        mix-blend-mode: soft-light;
        opacity: .53;
      }

      .cls-4 {
        fill: url(#linear-gradient-6);
        mix-blend-mode: overlay;
        opacity: .31;
      }

      .cls-5 {
        fill: url(#linear-gradient-5);
      }

      .cls-6 {
        fill: url(#linear-gradient-3);
      }

      .cls-7 {
        fill: url(#linear-gradient);
      }
    </style>
    <linearGradient id="linear-gradient" x1="43.86" y1="252.79" x2="434.08" y2="64.6" gradientUnits="userSpaceOnUse">
      <stop offset="0" stop-color="#6b1448"/>
      <stop offset=".21" stop-color="#6b1448"/>
      <stop offset=".39" stop-color="#6b1448"/>
      <stop offset=".51" stop-color="#942e49"/>
      <stop offset=".71" stop-color="#e8654e"/>
      <stop offset="1" stop-color="#e8654e"/>
    </linearGradient>
    <linearGradient id="linear-gradient-2" x1="389.25" y1="84.92" x2="70.42" y2="243.49" gradientUnits="userSpaceOnUse">
      <stop offset="0" stop-color="#e8654e"/>
      <stop offset=".43" stop-color="#e8654e"/>
      <stop offset=".47" stop-color="#d6594d"/>
      <stop offset=".57" stop-color="#a83b4a"/>
      <stop offset=".66" stop-color="#862649"/>
      <stop offset=".74" stop-color="#721848"/>
      <stop offset=".79" stop-color="#6b1448"/>
      <stop offset="1" stop-color="#6b1448"/>
    </linearGradient>
    <linearGradient id="linear-gradient-3" x1="8.97" y1="440.02" x2="185.62" y2="302.9" gradientUnits="userSpaceOnUse">
      <stop offset="0" stop-color="#000c55"/>
      <stop offset=".25" stop-color="#110b3c"/>
      <stop offset=".29" stop-color="#130b38"/>
      <stop offset=".44" stop-color="#180b30"/>
      <stop offset=".7" stop-color="#1a0b2e"/>
    </linearGradient>
    <linearGradient id="linear-gradient-4" x1="34.12" y1="452.32" x2="148.09" y2="259.92" gradientUnits="userSpaceOnUse">
      <stop offset="0" stop-color="#000c55"/>
      <stop offset=".31" stop-color="#120b39"/>
      <stop offset=".5" stop-color="#1a0b2e"/>
      <stop offset=".73" stop-color="#1a0b2e"/>
    </linearGradient>
    <linearGradient id="linear-gradient-5" x1="103.44" y1="332.07" x2="413.14" y2="155.45" gradientUnits="userSpaceOnUse">
      <stop offset="0" stop-color="#000c55"/>
      <stop offset=".47" stop-color="#32104f"/>
      <stop offset=".57" stop-color="#45114c"/>
      <stop offset=".72" stop-color="#5a124a"/>
      <stop offset=".86" stop-color="#661348"/>
      <stop offset="1" stop-color="#6b1448"/>
    </linearGradient>
    <linearGradient id="linear-gradient-6" x1="103.44" y1="332.07" x2="413.14" y2="155.45" gradientUnits="userSpaceOnUse">
      <stop offset="0" stop-color="#000c55"/>
      <stop offset=".01" stop-color="#020c54"/>
      <stop offset=".37" stop-color="#4a124c"/>
      <stop offset=".46" stop-color="#51124b"/>
      <stop offset=".78" stop-color="#641348"/>
      <stop offset="1" stop-color="#6b1448"/>
    </linearGradient>
  </defs>
  <g class="cls-2">
    <g id="Layer_1" data-name="Layer 1">
      <polygon class="cls-7" points="438.73 156.54 436.59 137.04 432.3 117.54 424.69 96.54 417.09 81.86 405.94 64.93 393.52 50.25 379.8 37.82 363.84 26.14 343.37 15 321.73 6.96 302.55 2.46 282.52 0 262.05 0 243.19 1.82 226.91 5.04 209.66 9.75 193.91 15.86 179.12 23.04 167.23 30.21 157.37 36.96 145.05 46.71 135.84 55.93 126.84 66 118.05 77.14 110.55 88.29 104.55 97.93 97.05 112.5 87.41 133.93 79.91 154.5 72.19 178.07 62.77 210.21 49.27 258.43 41.55 285.64 32.34 312.86 18.84 348.43 7.37 375.86 16.88 359.62 20.89 354.4 30.84 341.79 50.77 323.36 81.62 303 117.41 287.57 157.69 274.5 175.48 269.14 192.84 211.29 201.41 187.29 210.19 169.93 220.27 154.93 230.77 144 239.98 137.14 250.48 131.79 259.48 128.57 273.22 125.83 291.84 123.21 309.62 122.36 330.19 123.43 347.55 125.57 365.77 130.07 384.62 137.79 392.34 142.29 402.41 149.14 411.41 157.29 420.84 170.14 426.19 183.43 428.55 196.29 428.55 209.79 426.41 222.64 424.05 234 428.55 223.07 433.05 211.29 436.27 196.93 437.98 185.79 439.27 175.71 438.73 156.54"/>
      <polygon id="upper_gradient" data-name="upper gradient" class="cls-3" points="145.05 46.71 135.84 55.93 126.84 66 118.05 77.14 110.55 88.29 104.55 97.93 97.05 112.5 87.41 133.93 79.91 154.5 72.19 178.07 62.77 210.21 49.27 258.43 41.55 285.64 32.34 312.86 18.84 348.43 7.37 375.86 16.88 359.62 20.89 354.4 30.84 341.79 50.77 323.36 81.62 303 117.41 287.57 157.69 274.5 175.48 269.14 192.84 211.29 201.41 187.29 210.19 169.93 220.27 154.93 230.77 144 239.98 137.14 250.48 131.79 259.48 128.57 273.22 125.83 291.84 123.21 309.62 122.36 330.19 123.43 347.55 125.57 365.77 130.07 384.62 137.79 392.34 142.29 402.41 149.14 411.41 157.29 420.84 170.14 426.19 183.43 428.55 196.29 428.55 209.79 426.41 222.64 424.05 234 428.55 223.07 433.05 211.29 436.27 196.93 437.98 185.79 439.27 175.71 438.73 156.54 436.59 137.04 432.3 117.54 424.69 96.54 417.09 81.86 405.94 64.93 393.52 50.25 379.8 37.82 363.84 26.14 343.37 15 321.73 6.96 302.55 2.46 282.52 0 262.05 0 243.19 1.82 226.91 5.04 209.66 9.75 193.91 15.86 179.12 23.04 167.23 30.21 157.37 36.96 145.05 46.71"/>
      <polygon class="cls-6" points="171.49 284.69 162.49 317.16 152.85 349.94 141.27 383.69 130.99 410.05 121.02 428.85 115.4 438.01 107.2 447.98 100.93 453.6 93.38 459.07 87.27 462.76 77.47 466.46 70.08 467.91 61.72 468.55 53.36 467.91 44.85 466.3 38.74 464.37 32.63 461.48 26.36 457.46 20.1 452.8 14.15 446.69 9.01 439.3 4.83 430.46 1.61 420.33 .33 408.76 .49 402.01 1.49 394.54 4.02 384.44 7.45 375.66 14.97 362.1 30.35 342.09 43 329.29 54.89 319.41 73.13 307.03 81.74 302.67 93.27 297.71 107.85 292.73 124.24 288.66 136.35 286.41 146.31 285.33 157.35 284.69 171.49 284.69"/>
      <polygon class="cls-1" points="171.29 284.69 162.29 317.16 152.64 349.94 141.07 383.69 130.79 410.05 120.82 428.85 115.2 438.01 107 447.98 100.73 453.6 93.18 459.07 87.07 462.76 77.27 466.46 69.88 467.91 61.52 468.55 53.16 467.91 44.64 466.3 38.54 464.37 32.43 461.48 26.16 457.46 19.89 452.8 13.95 446.69 8.8 439.3 4.63 430.46 1.41 420.33 .13 408.76 .29 402.01 1.29 394.54 3.82 384.44 7.25 375.66 14.77 362.1 30.15 342.09 42.79 329.29 54.69 319.41 72.93 307.03 81.54 302.67 93.07 297.71 107.64 292.73 124.04 288.66 136.14 286.41 146.11 285.33 157.14 284.69 171.29 284.69"/>
      <polygon class="cls-5" points="329.05 303.28 315.12 305 302.61 305.58 288.95 305.1 275.13 303.66 255.12 299.8 237.36 295.7 226.76 293.45 217.55 291.2 207.31 289.35 197.83 287.67 188.99 286.54 181.84 285.82 171.23 285.17 160.3 285.17 150.17 285.58 139.23 286.55 126.29 288.71 113.32 291.79 102.88 294.82 94.27 297.76 85.71 300.96 96.11 296.33 106.72 291.76 121.17 285.89 133.78 281.8 152.42 275.75 175.81 269.02 187.22 265.65 200 261.95 211.65 258.5 227.64 253.43 246.04 246.68 259.54 240.9 274.25 233.67 284.37 227.24 291.36 222.17 299 215.18 302.53 211.41 305.35 207.95 308.88 202.57 312.1 196.86 314.19 191.8 315.87 186.5 317.4 179.58 317.88 173.48 317.72 168.01 317.4 163.59 315.95 156.2 313.22 149.29 309.12 142.46 303.82 136.59 297.63 131.85 292.81 129.28 286.86 127.27 282.36 126.15 278.67 125.8 272.78 125.92 278.82 124.61 283.3 123.87 289.79 122.97 292.31 122.73 296.31 122.44 302.85 122.12 307.46 122 310.73 121.91 316.22 122.09 321.72 122.39 327.82 122.71 330.45 122.93 332.84 123.14 340.89 124.13 345.81 124.83 347.49 125.04 349.16 125.3 358.08 127.51 366.12 129.5 384.98 137.21 393.13 142.01 402.77 148.57 411.77 156.71 421.2 169.57 426.55 182.85 428.91 195.71 428.91 209.21 426.77 222.07 424.41 233.42 420.5 240.92 415.84 248.37 410.53 256.03 405.02 262.35 400.36 267.55 395.27 272.16 387.12 278.91 379.52 284.21 371.53 288.71 366.18 291.6 359.59 294.55 350.53 298.19 341.7 300.76 334.89 302.37 329.05 303.28"/>
      <polygon class="cls-4" points="329.05 303.28 315.12 305 302.61 305.58 288.95 305.1 275.13 303.66 255.12 299.8 237.36 295.7 226.76 293.45 217.55 291.2 207.31 289.35 197.83 287.67 188.99 286.54 181.84 285.82 171.23 285.17 160.3 285.17 150.17 285.58 139.23 286.55 126.29 288.71 113.32 291.79 102.88 294.82 94.27 297.76 85.71 300.96 96.11 296.33 106.72 291.76 121.17 285.89 133.78 281.8 152.42 275.75 175.81 269.02 187.22 265.65 200 261.95 211.65 258.5 227.64 253.43 246.04 246.68 259.54 240.9 274.25 233.67 284.37 227.24 291.36 222.17 299 215.18 302.53 211.41 305.35 207.95 308.88 202.57 312.1 196.86 314.19 191.8 315.87 186.5 317.4 179.58 317.88 173.48 317.72 168.01 317.4 163.59 315.95 156.2 313.22 149.29 309.12 142.46 303.82 136.59 297.63 131.85 292.81 129.28 286.86 127.27 282.36 126.15 278.67 125.8 272.78 125.92 278.82 124.61 283.3 123.87 289.79 122.97 292.31 122.73 296.31 122.44 302.85 122.12 307.46 122 310.73 121.91 316.22 122.09 321.72 122.39 327.82 122.71 330.45 122.93 332.84 123.14 340.89 124.13 345.81 124.83 347.49 125.04 349.16 125.3 358.08 127.51 366.12 129.5 384.98 137.21 393.13 142.01 402.77 148.57 411.77 156.71 421.2 169.57 426.55 182.85 428.91 195.71 428.91 209.21 426.77 222.07 424.41 233.42 420.5 240.92 415.84 248.37 410.53 256.03 405.02 262.35 400.36 267.55 395.27 272.16 387.12 278.91 379.52 284.21 371.53 288.71 366.18 291.6 359.59 294.55 350.53 298.19 341.7 300.76 334.89 302.37 329.05 303.28"/>
    </g>
  </g>
</svg>